<svg id="evt60hmzskop1" xmlns="http://www.w3.org/2000/svg" xmlns:xlink="http://www.w3.org/1999/xlink" viewBox="0 0 960 960" shape-rendering="geometricPrecision" text-rendering="geometricPrecision"><style><![CDATA[#evt60hmzskop2_tr {animation: evt60hmzskop2_tr__tr 30000ms linear infinite normal forwards}@keyframes evt60hmzskop2_tr__tr { 0% {transform: translate(480px,480px) rotate(0deg)} 4.333333% {transform: translate(480px,480px) rotate(0deg)} 5.133333% {transform: translate(480px,480px) rotate(90deg)} 16.666667% {transform: translate(480px,480px) rotate(90deg)} 17.666667% {transform: translate(480px,480px) rotate(0deg)} 100% {transform: translate(480px,480px) rotate(0deg)} }#evt60hmzskop3_to {animation: evt60hmzskop3_to__to 30000ms linear infinite normal forwards}@keyframes evt60hmzskop3_to__to { 0% {transform: translate(702.453500px,480px)} 1.666667% {transform: translate(702.453500px,480px)} 2.666667% {transform: translate(257.546500px,480px)} 19.666667% {transform: translate(257.546500px,480px)} 20.666667% {transform: translate(702.453500px,480px)} 100% {transform: translate(702.453500px,480px)} }#evt60hmzskop4_to {animation: evt60hmzskop4_to__to 30000ms linear infinite normal forwards}@keyframes evt60hmzskop4_to__to { 0% {transform: translate(195.289500px,480px)} 1.666667% {transform: translate(195.289500px,480px)} 2.666667% {transform: translate(764.710500px,480px)} 19.666667% {transform: translate(764.710500px,480px)} 20.666667% {transform: translate(195.289500px,480px)} 100% {transform: translate(195.289500px,480px)} }]]></style><g id="evt60hmzskop2_tr" transform="translate(480,480) rotate(0)"><g id="evt60hmzskop2" transform="translate(-480,-480)"><g id="evt60hmzskop3_to" transform="translate(702.453500,480)"><path id="evt60hmzskop3" d="M702.450000,49.495200C560.214000,49.495200,444.907000,164.800000,444.907000,307.040000C444.907000,449.279000,560.214000,564.586000,702.450000,564.586000C844.687000,564.586000,960,449.279000,960,307.040000C960,164.800000,844.687000,49.495200,702.450000,49.495200ZM702.450000,435.811000C631.445000,435.811000,573.679000,378.046000,573.679000,307.040000C573.679000,236.034000,631.445000,178.268000,702.450000,178.268000C773.456000,178.268000,831.225000,236.034000,831.225000,307.040000C831.225000,378.046000,773.456000,435.811000,702.450000,435.811000Z" transform="translate(-702.453500,-307.040600)" fill="rgb(254,44,82)" stroke="none" stroke-width="1"/></g><g id="evt60hmzskop4_to" transform="translate(195.289500,480)"><path id="evt60hmzskop4" d="M299.758000,44.483100L130.038000,214.838000L130.038000,214.835000L130.038000,0L0,0L0,86.063200L0,268.174000L0,268.177000L0,343.610000L0,343.611000L0,489.097000L0,613.037000L130.038000,613.037000L130.038000,396.952000L130.038000,396.949000L299.758000,567.300000L390.497000,476.245000L219.989000,305.892000L390.579000,135.540000L299.758000,44.483100Z" transform="translate(-195.289500,-306.518500)" fill="rgb(254,44,82)" stroke="none" stroke-width="1"/></g></g></g></svg>