<svg width="128" height="82" viewBox="0 0 128 82" fill="none" xmlns="http://www.w3.org/2000/svg">
<path d="M39.9677 5.93108L17.3384 28.645V28.6446V0H0V11.4751V35.7565V35.7569V45.8146V45.8148V65.2128V81.7381H17.3384V52.9269V52.9264L39.9677 75.64L52.0663 63.4993L29.3318 40.7855L52.0771 18.072L39.9677 5.93108Z" fill="#222222"/>
<path d="M93.6601 6.59935C74.6953 6.59935 59.3211 21.9733 59.3211 40.9386C59.3211 59.9039 74.6953 75.2781 93.6601 75.2781C112.625 75.2781 128 59.9039 128 40.9386C128 21.9733 112.625 6.59935 93.6601 6.59935ZM93.6601 58.1081C84.1927 58.1081 76.4906 50.406 76.4906 40.9386C76.4906 31.4712 84.1927 23.7691 93.6601 23.7691C103.128 23.7691 110.83 31.4712 110.83 40.9386C110.83 50.406 103.128 58.1081 93.6601 58.1081Z" fill="#222222"/>
</svg>
