<svg width="640" height="960" viewBox="0 0 640 960" fill="none" xmlns="http://www.w3.org/2000/svg">
<rect width="640" height="960" fill="#0019FF"/>
<mask id="mask0" mask-type="alpha" maskUnits="userSpaceOnUse" x="1" y="173" width="639" height="787">
<rect x="1.70581" y="173.398" width="637.974" height="786.38" fill="#C4C4C4"/>
</mask>
<g mask="url(#mask0)">
<path d="M589.901 1014.43C563.12 960.876 505.949 934.386 461.091 898.735C417.796 864.329 367.502 796.308 415.515 744.145C436.72 721.112 466.917 721.417 491.156 739.65C519.351 760.85 531.281 794.799 538.983 827.78C546.525 860.172 550.878 893.832 568.625 922.712C579.196 939.91 602.969 979.186 626.15 979.186" stroke="white" stroke-opacity="0.2" stroke-width="6" stroke-miterlimit="10" stroke-linecap="round" stroke-linejoin="round"/>
<path d="M398.086 539.171C384.885 539.171 347.783 556.455 352.205 574.293C356.46 591.469 388.497 585.372 400.835 583.628C413.273 581.865 445.233 578.79 441.826 560.71C438.24 541.658 408.011 539.171 398.086 539.171Z" stroke="white" stroke-opacity="0.2" stroke-width="6" stroke-miterlimit="10" stroke-linecap="round" stroke-linejoin="round"/>
<path d="M535.524 1052.69C528.656 1022.74 516.594 1000.81 490.104 984.844C462.282 968.086 435.428 951.708 411.822 929.02C360.771 879.971 323.129 802.294 340.212 730.315C356.986 659.619 426.745 626.46 489.422 666.458C534.171 695.008 554.179 753.941 572.699 800.905C584.415 830.628 594.967 861.005 608.848 889.808C616.45 905.562 627.358 930.87 646.285 935.888" stroke="white" stroke-opacity="0.2" stroke-width="6" stroke-miterlimit="10" stroke-linecap="round" stroke-linejoin="round"/>
<path d="M339.18 942.936C363.528 991.643 490.212 1027.45 490.212 1081.89" stroke="white" stroke-opacity="0.2" stroke-width="6" stroke-miterlimit="10" stroke-linecap="round" stroke-linejoin="round"/>
<path d="M481.662 602.084C536.711 625.529 577.688 658.394 603.019 714.308C616.382 743.827 622.12 774.289 629.642 805.472C637.623 838.616 655.275 865.863 677.084 891.769" stroke="white" stroke-opacity="0.2" stroke-width="6" stroke-miterlimit="10" stroke-linecap="round" stroke-linejoin="round"/>
<path d="M325.086 617.708C262.224 680.57 248.557 826.136 306.962 909.711" stroke="white" stroke-opacity="0.2" stroke-width="6" stroke-miterlimit="10" stroke-linecap="round" stroke-linejoin="round"/>
<path d="M278.768 955.017C307.766 1013.02 371.314 1059.85 429.807 1084.91" stroke="white" stroke-opacity="0.2" stroke-width="6" stroke-miterlimit="10" stroke-linecap="round" stroke-linejoin="round"/>
<path d="M356.294 1110.08C258.768 1072.27 213.464 948.418 201.656 853.347C189.623 756.434 209.304 645.388 291.856 583.474" stroke="white" stroke-opacity="0.2" stroke-width="6" stroke-miterlimit="10" stroke-linecap="round" stroke-linejoin="round"/>
<path d="M145.256 916.071C128.242 844.878 137.958 764.893 168.231 698.27" stroke="white" stroke-opacity="0.2" stroke-width="6" stroke-miterlimit="10" stroke-linecap="round" stroke-linejoin="round"/>
<path d="M602.463 610.304C672.56 677.091 687.863 755.756 695.65 833.954" stroke="white" stroke-opacity="0.2" stroke-width="6" stroke-miterlimit="10" stroke-linecap="round" stroke-linejoin="round"/>
<path d="M473.411 538.214C502.274 541.322 538.242 553.504 560.79 574.537" stroke="white" stroke-opacity="0.2" stroke-width="6" stroke-miterlimit="10" stroke-linecap="round" stroke-linejoin="round"/>
<path d="M138.536 644.074C218.833 527.246 356.155 444.468 500.288 479.212C638.413 512.505 719.898 638.73 752.301 769.548" stroke="white" stroke-opacity="0.2" stroke-width="6" stroke-miterlimit="10" stroke-linecap="round" stroke-linejoin="round"/>
<path d="M117.393 679.956C59.1439 796.453 62.2003 975.933 160.167 1073.9" stroke="white" stroke-opacity="0.2" stroke-width="6" stroke-miterlimit="10" stroke-linecap="round" stroke-linejoin="round"/>
<path d="M268.022 456.762C144.933 507.487 41.5649 652.812 31.8562 785.992" stroke="white" stroke-opacity="0.2" stroke-width="6" stroke-miterlimit="10" stroke-linecap="round" stroke-linejoin="round"/>
<path d="M341.368 435.24C415.25 417.729 476.371 422.885 551.274 441.08" stroke="white" stroke-opacity="0.2" stroke-width="6" stroke-miterlimit="10" stroke-linecap="round" stroke-linejoin="round"/>
<path d="M620.711 473.627C705.059 526.854 751.255 615.192 783.959 705.688" stroke="white" stroke-opacity="0.2" stroke-width="6" stroke-miterlimit="10" stroke-linecap="round" stroke-linejoin="round"/>
<path d="M693.767 454.128C384.054 207.812 67.8289 463.691 5.05811 642.686" stroke="white" stroke-opacity="0.2" stroke-width="6" stroke-miterlimit="10" stroke-linecap="round" stroke-linejoin="round"/>
<path d="M659.081 371.695C617.886 357.525 395.95 188.129 55.0378 445.549" stroke="white" stroke-opacity="0.2" stroke-width="6" stroke-miterlimit="10" stroke-linecap="round" stroke-linejoin="round"/>
<path d="M160.206 322.559C187.211 300.603 259.82 261.986 367.926 249.761C445.437 240.988 525.085 250.077 596.396 282.305" stroke="white" stroke-opacity="0.2" stroke-width="6" stroke-miterlimit="10" stroke-linecap="round" stroke-linejoin="round"/>
<path d="M248.886 232.9C319.067 206.416 396.418 190.761 470.846 203.486" stroke="white" stroke-opacity="0.2" stroke-width="6" stroke-miterlimit="10" stroke-linecap="round" stroke-linejoin="round"/>
</g>
<path d="M244.104 427.416C246.339 427.162 248.385 426.574 250.022 425.716C251.533 424.925 252.429 423.644 252.48 422.206C252.535 420.664 251.603 419.147 249.988 418.147C249.053 417.568 248.043 417.298 246.811 417.298C246.141 417.298 245.478 417.377 244.838 417.453L244.592 417.482C233.993 418.727 223.391 419.941 212.79 421.155C210.248 421.446 207.706 421.722 205.114 422.003L203.187 422.213C205.901 414.852 209.323 406.425 214.135 398.86C219.239 390.835 225.325 385.678 232.741 383.096C236.987 381.617 240.889 382.126 244.371 384.619C248.05 387.254 250.862 390.252 252.969 393.783C253.466 394.618 254.314 395.793 255.534 396.663C257.316 397.933 259.629 397.809 260.988 396.42C261.767 395.624 262.181 394.5 262.154 393.257C262.12 391.676 261.581 389.922 260.676 388.447C257.101 382.612 252.492 378.208 246.979 375.354C243.831 373.724 240.514 372.898 237.122 372.898C233.162 372.898 229.092 373.974 224.679 376.19C216.877 380.106 210.497 386.31 205.177 395.155C200.637 402.701 197.258 410.913 193.989 418.854L193.896 419.08C193.261 420.625 192.454 422.238 191.43 424.013C191.329 424.188 190.902 424.466 190.567 424.527C189.273 424.764 187.937 424.95 186.645 425.13C185.566 425.281 184.487 425.432 183.413 425.612L180.794 426.048C176.45 426.769 171.958 427.515 167.558 428.385C165.045 428.881 162.626 429.772 160.8 430.492C158.886 431.246 157.942 433.201 158.502 435.246C159.021 437.142 161.184 438.782 162.993 438.587C166.343 438.234 169.322 437.853 172.103 437.421C174.528 437.044 176.949 436.639 179.37 436.233C182.133 435.77 184.989 435.291 187.801 434.866C188.124 434.817 188.391 434.795 188.549 434.804C188.556 434.932 188.55 435.159 188.497 435.547C188.379 436.391 188.093 437.237 187.79 438.132C187.623 438.625 187.456 439.12 187.315 439.618C186.166 443.669 184.995 447.715 183.827 451.76C181.147 461.031 178.376 470.618 175.893 480.118C172.638 492.578 169.614 505.314 166.691 517.63C165.999 520.543 165.308 523.456 164.613 526.368C164.271 527.801 164.395 529.279 164.514 530.708L164.554 531.196C164.695 532.99 165.985 534.306 168.094 534.808C168.271 534.85 168.457 534.872 168.649 534.872C170.518 534.872 172.778 532.822 173.165 531.233C174.279 526.661 175.399 522.09 176.519 517.52C179.204 506.564 181.98 495.234 184.619 484.07C188.024 469.662 192.605 455.329 197.034 441.467C197.861 438.877 198.689 436.288 199.51 433.695C199.592 433.436 199.99 433.039 200.178 432.986L200.716 432.854C203.169 432.244 205.706 431.614 208.206 431.329C214.171 430.65 220.242 430.003 226.114 429.376C232.009 428.749 238.107 428.1 244.104 427.416Z" fill="white"/>
<path d="M335.317 435.643C332.987 434.197 330.236 433.858 327.291 434.649C321.716 436.145 315.19 438.136 309.057 441.548C299.887 446.652 292.126 453.649 285.744 459.821C285.336 460.216 284.917 460.598 284.497 460.979L284.098 461.344L283.892 461.234C284.067 460.389 284.235 459.542 284.404 458.694C284.803 456.69 285.214 454.619 285.718 452.609C286.105 451.064 286.487 449.518 286.87 447.972C289.465 437.486 292.148 426.642 296.327 416.44C296.673 415.598 296.772 414.634 296.843 413.721C297.042 411.194 296.096 409.339 294.248 408.635C293.872 408.491 293.453 408.418 293.001 408.418C291.27 408.418 289.451 409.475 288.579 410.989L288.272 411.52C287.066 413.605 285.819 415.761 285.129 418.065C282.176 427.941 279.448 437.765 276.68 447.798C275.858 450.776 275.122 453.846 274.412 456.816C274.102 458.11 273.79 459.412 273.468 460.718C273.336 460.717 273.208 460.716 273.086 460.714L272.536 460.709C272.313 460.709 272.098 460.713 271.883 460.723C270.17 460.807 268.457 460.897 266.745 460.986C263.489 461.155 260.121 461.331 256.809 461.467C253.072 461.622 249.162 461.725 245.184 461.773L245.038 461.775C242.665 461.775 241.144 461.037 240.107 459.384C239.547 458.492 238.778 457.733 238.034 457C237.858 456.827 237.685 456.656 237.514 456.483C235.714 454.662 233.723 454.166 231.102 454.899C226.073 456.308 223.146 459.819 220.945 463.068C214.213 473.005 211.415 484.594 212.138 499.539C212.331 503.543 214.124 506.583 217.054 507.881C218.412 508.483 219.796 508.787 221.169 508.787C223.659 508.787 226.055 507.818 228.289 505.908C229.4 504.957 230.494 503.846 231.538 502.603C237.568 495.434 241.17 486.728 242.549 475.992C242.977 472.657 244.34 471.428 247.755 471.293L249.339 471.229C252.322 471.108 255.407 470.983 258.439 470.942C261.434 470.9 264.429 470.909 267.481 470.92C268.683 470.923 269.894 470.927 271.117 470.928C270.824 472.225 270.532 473.513 270.241 474.798C269.517 477.985 268.769 481.282 268.072 484.516C267.853 485.531 267.625 486.545 267.395 487.559C266.68 490.717 265.942 493.982 265.551 497.244C265.124 500.814 266.572 503.238 269.424 503.73C271.947 504.167 274.251 502.305 275.347 498.943C275.633 498.07 275.857 497.166 276.074 496.293C276.294 495.406 276.522 494.489 276.811 493.616C280.34 482.963 286.483 473.205 295.59 463.784C305.318 453.719 315.731 447.504 327.424 444.781C329.704 444.25 332 443.782 333.946 443.393C335.908 443.002 337.195 441.724 337.667 439.698C338.131 437.695 336.739 436.525 335.317 435.643ZM232.727 475.295C232.096 483.672 229.107 490.226 223.59 495.332C223.373 495.533 223.123 495.716 222.833 495.928C222.822 495.936 222.81 495.944 222.798 495.953C221.822 489.881 222.441 483.82 224.688 477.445C225.053 476.408 225.512 475.378 225.955 474.382C226.322 473.556 226.702 472.702 227.031 471.841C227.356 470.992 227.817 470.826 228.504 470.826C228.625 470.826 228.752 470.832 228.885 470.842C232.222 471.114 232.976 471.988 232.727 475.295Z" fill="white"/>
<path fill-rule="evenodd" clip-rule="evenodd" d="M241.023 562.782C239.629 563.569 238.478 563.993 237.618 564.747C235.083 566.972 232.807 569.51 230.159 571.583C227.477 573.682 224.647 575.752 221.571 577.148C217.483 579.003 212.962 576.109 212.474 571.631C212.286 569.903 212.354 568.023 212.837 566.367C216.213 554.821 221.879 544.58 230.229 535.81C234.571 531.253 239.687 529.078 245.909 529.333C246.343 529.349 246.825 529.351 247.197 529.537C249.861 530.868 252.504 532.243 255.151 533.609C255.547 533.813 255.938 534.029 256.32 534.257C259.777 536.325 260.018 536.766 258.616 540.427C256.387 546.245 253.875 551.96 251.778 557.825C250.651 560.976 250.018 564.324 249.389 567.626C248.793 570.761 250.405 572.127 253.48 571.131C255.22 570.568 256.899 569.738 258.498 568.838C267.488 563.788 275.544 557.476 283.083 550.475C284.201 549.436 285.352 548.406 286.611 547.553C289.08 545.882 292.805 547.623 292.882 550.571C292.91 551.643 292.34 553.033 291.563 553.776C281.472 563.434 271.272 573.001 258.063 578.38C255.334 579.491 252.349 580.498 249.456 580.573C243.692 580.724 239.869 576.027 240.21 569.857C240.33 567.715 240.693 565.585 241.023 562.782ZM223.907 564.24C232.008 558.246 238.997 551.279 244.218 542.676C245.815 540.044 245.75 539.984 243.34 537.763C232.939 543.705 226.775 552.766 223.907 564.24Z" fill="white"/>
<path d="M451.764 441.263C451.936 439.188 450.507 437.787 448.639 437.477C446.493 437.121 444.318 438.086 443.632 439.892C438.395 453.703 432.642 467.349 428.109 481.389C420.552 504.79 413.763 528.44 406.728 552.007C406.213 553.732 405.374 554.645 403.725 555.299C396.645 558.109 389.619 561.06 382.568 563.947C382.241 564.081 381.871 564.109 381.769 564.131C381.362 558.897 381.178 553.743 380.517 548.65C379.45 540.442 369.676 534.198 362.009 536.653C356.15 538.529 350.852 541.44 346.103 545.385C342.918 548.03 339.584 550.494 336 553.286C336.08 552.638 336.075 552.369 336.149 552.124C338.91 542.838 341.505 533.498 344.483 524.282C351.059 503.933 357.798 483.636 364.536 463.34C366.45 457.577 368.618 451.898 370.598 446.155C370.832 445.475 370.842 444.521 370.541 443.891C369.767 442.275 368.342 441.293 366.527 441.358C364.766 441.421 363.087 441.868 362.26 443.78C361.039 446.599 359.616 449.338 358.514 452.202C347.613 480.551 339.352 509.773 329.982 538.629C324.204 556.426 318.706 574.311 313.082 592.156C312.201 594.954 311.194 597.72 310.482 600.559C309.877 602.974 311.233 605.481 313.285 606.365C315.069 607.133 317.72 606.262 318.962 604.164C320.247 601.991 321.357 599.688 322.292 597.342C323.576 594.116 324.507 590.749 325.795 587.526C331.963 572.09 342.698 560.224 355.477 550.023C358.739 547.419 362.593 546.106 366.827 546.017C368.725 545.977 369.783 546.764 370.229 548.659C371.77 555.215 371.647 561.788 370.713 568.402C370.463 570.172 369.683 571.508 368.299 572.599C365.198 575.045 362.119 577.517 359.059 580.012C343.988 592.296 331.021 606.45 321.046 623.206C316.655 630.581 314.141 638.607 314.301 647.248C314.473 656.592 322.09 661.052 330.307 656.663C332.694 655.388 334.934 653.699 336.934 651.864C348.101 641.623 356.707 629.393 364.131 616.28C370.9 604.327 375.525 591.528 378.924 578.265C379.354 576.583 380.207 575.664 381.721 574.989C387.093 572.594 392.422 570.102 397.777 567.667C399.27 566.988 400.797 566.382 402.622 565.609C402.412 566.475 402.313 566.978 402.168 567.468C397.505 583.25 393.479 599.191 390.439 615.366C389.168 622.134 388.116 628.945 387.034 635.746C386.674 638.01 387.251 640.182 389.275 641.379C391.079 642.445 392.98 641.597 394.46 640.366C395.143 639.799 395.63 638.759 395.804 637.856C397.301 630.111 398.508 622.305 400.173 614.597C406.74 584.191 415.445 554.341 424.458 524.603C432.269 498.832 440.508 473.178 450.284 448.054C451.117 445.915 451.576 443.557 451.764 441.263ZM363.54 594.507C357.932 609.875 349.509 623.6 338.962 636.037C336.116 639.392 332.967 642.492 329.894 645.648C329.21 646.35 328.303 646.869 327.425 647.34C325.24 648.512 323.746 647.727 324.07 645.244C324.508 641.903 325.01 638.416 326.353 635.373C330.941 624.987 336.833 615.359 344.749 607.116C350.167 601.473 355.703 595.944 361.242 590.418C362.402 589.26 363.804 588.344 365.096 587.317C365.282 587.418 365.469 587.52 365.655 587.622C364.956 589.92 364.361 592.255 363.54 594.507Z" fill="white"/>
<path d="M605.439 556.301C603.894 555.105 602.222 555.248 600.578 556.246C598.291 557.633 595.944 558.927 593.696 560.373C582.832 567.352 572.09 574.528 561.108 581.317C553.722 585.883 546.116 590.126 538.389 594.087C535.511 595.563 532.048 596.244 528.784 596.538C524.807 596.896 521.902 594.521 521.59 590.558C521.316 587.099 522.007 583.555 522.356 580.057C522.566 577.95 523.726 576.826 525.845 576.049C540.185 570.801 551.327 561.596 559.184 548.468C561.492 544.612 562.591 540.479 561.883 535.982C561.037 530.617 556.7 527.329 551.297 527.811C545.089 528.365 540.087 531.384 535.974 535.769C529.997 542.14 525.036 549.304 520.972 557.039C516.321 565.888 512.019 574.885 511.583 585.191C511.724 587.191 511.731 589.209 512.033 591.185C512.99 597.462 515.704 602.542 522.144 604.681C526.454 606.113 531.015 606.231 535.19 604.719C541.068 602.591 547.052 600.333 552.341 597.078C569.428 586.559 586.229 575.575 603.103 564.71C604.243 563.975 605.234 562.865 605.999 561.731C607.005 560.24 606.651 557.239 605.439 556.301ZM543.971 540.638C545.403 539.166 547.376 537.996 549.318 537.299C552.032 536.324 553.664 537.928 552.748 540.63C551.815 543.384 550.686 546.181 549.073 548.576C544.278 555.695 538.119 561.342 530.061 564.665C529.277 564.988 528.435 565.172 527.123 565.574C531.908 556.266 537.007 547.8 543.971 540.638Z" fill="white"/>
<path d="M497.641 536.918C496.141 535.549 494.331 535.361 492.668 536.498C491.31 537.427 490.058 538.584 488.967 539.823C477.949 552.333 467.261 565.144 455.105 576.602C453.998 577.645 452.758 578.612 451.431 579.342C448.834 580.771 447.214 579.691 447.25 576.668C447.257 576.011 447.368 575.328 447.576 574.704C450.71 565.258 453.905 555.833 456.989 546.372C457.686 544.232 458.231 541.993 458.453 539.761C458.677 537.499 457.183 535.723 455.242 535.287C453.456 534.886 450.464 536.184 449.771 537.832C445.392 548.245 441.084 558.695 438.377 569.697C437.328 573.962 437.264 578.341 438.307 582.64C439.92 589.294 445.303 592.04 451.691 589.57C455.876 587.951 459.483 585.465 462.625 582.275C468.876 575.932 475.138 569.599 481.398 563.266C481.848 562.81 482.329 562.387 482.999 561.756C482.999 562.443 483.038 562.829 482.992 563.203C482.416 567.986 481.821 572.766 481.243 577.548C480.356 584.904 480.309 592.238 481.862 599.524C481.971 600.039 482.034 600.767 482.38 600.99C483.86 601.947 485.268 603.24 487.316 602.498C489.263 601.79 490.156 600.359 490.312 598.398C490.375 597.604 490.316 596.79 490.236 595.992C489.119 584.913 490.7 574.084 493.423 563.396C495.255 556.208 497.346 549.085 499.336 541.938C499.915 539.862 499.094 538.244 497.641 536.918Z" fill="white"/>
<path d="M363.016 632.227C364.1 630.785 364.658 629.346 363.624 627.662C362.586 625.973 361.045 625.051 359.095 625.343C347.833 627.035 307.631 631.648 296.371 633.366C289.686 634.387 283.014 635.592 276.292 636.239C271.864 636.666 271.085 635.228 272.466 630.854C272.532 630.649 272.624 630.453 272.699 630.251C276.886 618.895 281.097 607.55 285.235 596.176C285.894 594.362 286.436 592.454 286.662 590.546C286.976 587.91 285.669 585.958 283.659 585.442C281.166 584.804 278.645 585.922 277.574 588.313C275.659 592.585 273.631 596.822 272.021 601.21C267.551 613.381 263.253 625.615 258.944 637.844C258.444 639.262 257.658 639.824 256.193 640.079C242.843 642.403 177.005 653.065 163.822 654.574C158.821 655.147 153.815 655.679 148.452 656.268C148.682 655.442 148.767 655.025 148.911 654.629C153.028 643.374 157.634 632.308 164.019 622.152C170.443 611.934 178.792 603.664 190.513 599.561C196.597 597.432 202.429 597.99 207.791 601.826C212.722 605.356 216.866 609.593 219.993 614.83C220.785 616.157 221.857 617.456 223.101 618.347C226.246 620.596 229.974 618.777 229.897 614.911C229.857 612.929 229.136 610.744 228.091 609.037C223.572 601.652 217.624 595.617 209.878 591.602C199.954 586.458 190.118 587.974 180.607 592.747C169.242 598.45 160.932 607.429 154.443 618.21C148.214 628.562 143.647 639.699 139.068 650.832C138.113 653.154 137.001 655.436 135.718 657.59C135.253 658.37 134.133 659.041 133.206 659.219C130.025 659.831 126.787 660.143 123.588 660.678C116.343 661.89 109.085 663.051 101.881 664.475C98.8048 665.083 95.7852 666.136 92.8588 667.288C90.8024 668.101 90.0439 670.138 90.5693 672.071C91.0743 673.929 93.3157 675.797 95.1708 675.601C99.3239 675.164 103.473 674.653 107.598 674.011C114.787 672.893 121.945 671.593 129.138 670.504C131.536 670.141 132.086 670.677 131.754 673.071C131.481 675.038 130.642 676.922 130.092 678.854C124.84 697.356 119.291 715.778 114.431 734.381C108.931 755.43 104.007 776.629 98.9743 797.796C98.4828 799.868 98.8783 802.187 99.0718 804.372C99.2532 806.432 101.068 807.189 102.664 807.622C104.211 808.04 107.405 805.657 107.784 804.213C108.976 799.683 110.237 795.172 111.33 790.619C115.891 771.633 119.949 752.514 125.049 733.674C130.656 712.965 137.285 692.531 143.259 671.917C144.149 668.843 145.822 667.522 148.656 667.041C148.94 666.993 149.224 666.938 149.509 666.904C166.691 664.863 183.926 661.91 201.106 659.869C205.935 659.295 228.41 655.919 234.458 654.969C241.057 653.933 247.613 652.63 254.444 651.397C253.877 653.983 253.498 656.392 252.817 658.71C249.794 669.008 246.601 679.259 243.624 689.571C236.351 714.762 228.223 739.726 222.901 765.442C220.578 776.658 218.767 787.981 216.765 799.262C216.301 801.881 218.025 805.063 219.97 805.467C222.756 806.045 225.649 804.117 226.351 801.158C226.752 799.475 227.158 797.787 227.398 796.078C230.028 777.559 234.585 759.43 239.298 741.391C245.249 718.607 252.173 696.075 258.812 673.475C261.002 666.019 263.638 658.697 266.006 651.295C266.625 649.363 267.96 648.667 269.809 648.363C288.227 645.316 335.597 639.437 354.003 636.308C357.32 635.746 360.747 635.25 363.016 632.227Z" fill="white"/>
<path d="M529.112 713.498C527.475 712.159 525.664 712.273 523.886 713.332C521.41 714.808 518.888 716.214 516.463 717.769C504.693 725.33 493.053 733.101 481.158 740.46C473.261 745.346 465.118 749.866 456.871 754.138C453.889 755.681 450.33 756.457 446.953 756.815C442.259 757.313 438.916 754.688 438.596 750.029C438.336 746.226 439.194 742.339 439.615 738.497C439.836 736.5 441.067 735.532 442.975 734.839C458.602 729.165 470.724 719.182 479.255 704.889C481.735 700.733 482.886 696.261 482.079 691.419C481.132 685.74 476.488 682.243 470.785 682.721C464.165 683.276 458.733 686.403 454.387 691.083C444.878 701.327 437.725 713.136 432.38 726.049C429.131 733.894 427.381 741.971 428.289 750.516C429.38 760.774 435.899 766.643 447.17 766.553C453.429 766.802 459.76 763.942 465.845 760.61C487.056 748.998 507.116 735.54 527.15 722.047C528.185 721.351 529.048 720.266 529.713 719.189C530.673 717.633 530.322 714.49 529.112 713.498ZM462.672 696.693C464.303 695.013 466.584 693.717 468.807 692.924C471.499 691.964 473.223 693.688 472.294 696.366C471.196 699.53 469.916 702.761 468.037 705.499C462.893 712.991 456.33 718.964 447.777 722.467C447.112 722.739 446.413 722.925 445.722 723.124C445.528 723.179 445.306 723.133 444.791 723.133C449.773 713.436 455.228 704.365 462.672 696.693Z" fill="white"/>
<path d="M210.597 692.518C208.886 690.974 206.874 690.924 205.043 692.218C203.65 693.203 202.382 694.425 201.252 695.712C189.383 709.2 177.855 722.999 164.758 735.353C163.616 736.429 162.347 737.436 160.982 738.197C158.062 739.826 156.166 738.532 156.322 735.124C156.352 734.485 156.483 733.83 156.685 733.223C160.068 723.044 163.512 712.887 166.835 702.689C167.586 700.384 168.166 697.968 168.397 695.563C168.631 693.127 166.998 691.225 164.89 690.781C162.957 690.372 159.77 691.794 159.022 693.574C154.305 704.8 149.484 716.023 146.848 727.941C145.922 732.13 146.013 736.734 146.588 741.018C147.626 748.754 154.059 752.08 161.358 749.201C166.215 747.286 170.17 744.131 173.87 740.501C180.87 733.636 188.023 726.928 194.877 720.379C194.442 723.886 193.919 728.092 193.395 732.299C192.251 741.493 191.592 750.683 193.594 759.856C193.967 761.564 195.958 763.376 197.854 763.452C199.816 763.531 201.535 762.717 202.163 760.824C202.645 759.376 202.766 757.703 202.62 756.171C201.48 744.297 203.151 732.699 206.043 721.245C208 713.493 210.241 705.814 212.419 698.12C213.08 695.782 212.236 693.995 210.597 692.518Z" fill="white"/>
<path d="M334.916 692.547C333.299 691.071 331.347 690.87 329.557 692.094C328.093 693.097 326.744 694.344 325.567 695.679C313.694 709.16 302.174 722.968 289.07 735.317C287.878 736.442 286.542 737.481 285.112 738.271C282.348 739.795 280.567 738.609 280.606 735.389C280.615 734.68 280.734 733.942 280.956 733.271C284.334 723.092 287.78 712.932 291.103 702.736C291.853 700.429 292.442 698.017 292.68 695.61C292.923 693.173 291.31 691.257 289.218 690.788C287.294 690.357 284.071 691.755 283.324 693.532C278.603 704.755 273.96 716.017 271.042 727.876C269.911 732.473 269.843 737.191 270.967 741.824C272.707 748.996 278.508 751.955 285.393 749.293C289.904 747.549 293.792 744.871 297.178 741.432C303.914 734.594 310.663 727.769 317.409 720.943C317.895 720.454 318.413 719.995 319.135 719.317C319.135 720.06 319.176 720.474 319.128 720.877C318.507 726.031 317.864 731.183 317.242 736.337C316.286 744.265 316.235 752.168 317.909 760.022C318.027 760.576 318.095 761.362 318.468 761.604C320.064 762.634 321.581 764.027 323.788 763.227C325.886 762.464 326.849 760.919 327.016 758.809C327.084 757.951 327.021 757.076 326.934 756.215C325.731 744.275 327.434 732.603 330.369 721.084C332.344 713.336 334.597 705.661 336.742 697.958C337.368 695.721 336.482 693.976 334.916 692.547Z" fill="white"/>
<path d="M430.83 686.8C431.259 684.879 429.917 683.717 428.48 682.786C425.619 680.932 422.432 680.751 419.316 681.676C414.421 683.128 409.498 684.61 404.805 686.594C393.751 691.267 384.613 698.774 375.954 706.909C374.19 708.568 372.445 710.242 370.188 712.385C370.343 710.25 370.227 708.724 370.59 707.323C373.696 695.336 376.826 683.355 380.097 671.411C381.006 668.09 382.451 664.918 383.564 661.646C384.024 660.296 384.414 658.885 384.561 657.473C384.837 654.813 383.754 652.836 381.881 652.127C380.106 651.455 377.166 652.374 376.099 654.462C374.143 658.29 372.113 662.164 370.854 666.248C363.55 689.945 358.063 714.11 352.633 738.288C351.655 742.638 350.47 746.973 349.941 751.383C349.379 756.074 351.044 758.625 354.063 759.082C356.937 759.514 359.142 757.512 360.439 753.218C360.98 751.428 361.34 749.583 361.928 747.81C366.533 733.95 374.714 722.396 384.99 712.209C393.566 703.708 403.334 697.072 414.994 693.575C418.916 692.397 422.966 691.63 426.969 690.728C429.134 690.239 430.379 688.816 430.83 686.8Z" fill="white"/>
<path d="M432.366 844.546C432.379 839.32 436.529 835.1 441.627 835.131C446.811 835.161 450.852 839.298 450.843 844.566C450.839 847.04 449.943 849.265 448.459 850.93C451.452 851.704 454.377 852.585 457.227 853.565C458.73 850.963 459.543 847.941 459.672 844.501C459.598 843.657 459.568 842.774 459.435 841.907C458.841 838.038 457.186 834.695 454.444 831.961C450.385 827.913 445.478 826.139 439.835 826.658C435.667 827.041 432.022 828.753 429.034 831.745C424.742 836.039 422.89 841.216 423.793 847.195C426.832 847.34 429.903 847.605 432.998 847.99C432.589 846.923 432.363 845.762 432.366 844.546Z" fill="white"/>
<path d="M580.526 831.909C580.526 836.604 580.526 841.333 580.526 846.035C580.526 845.896 580.351 845.813 580.285 845.729C576.776 841.243 573.268 836.758 569.765 832.267C569.618 832.077 569.469 831.958 569.237 831.959C567.661 831.969 566.086 831.909 564.509 831.909C564.415 831.909 564.422 831.909 564.166 831.909C564.166 840.516 564.166 848.861 564.166 857.207C566.211 857.207 568.512 857.207 570.557 857.207C570.557 854.86 570.557 852.468 570.557 850.151C570.557 847.84 570.557 845.53 570.557 843.145C570.557 843.276 570.702 843.341 570.757 843.411C574.292 847.921 577.817 852.431 581.35 856.944C581.458 857.081 581.559 857.179 581.739 857.177C583.35 857.17 584.956 857.207 586.568 857.207C586.645 857.207 586.662 857.207 586.917 857.207C586.917 848.861 586.917 840.516 586.917 831.909C584.616 831.909 582.571 831.909 580.526 831.909Z" fill="white"/>
<path d="M507.928 847.818C511.251 847.818 514.83 847.818 518.153 847.818C518.153 845.732 518.153 843.906 518.153 841.82C514.83 841.82 511.251 841.82 507.928 841.82C507.928 840.776 507.928 839.472 507.928 838.168C512.018 838.168 516.364 838.168 520.454 838.168C520.454 836.082 520.454 833.995 520.454 831.909C514.063 831.909 507.928 831.909 501.537 831.909C501.537 840.516 501.537 848.861 501.537 857.207C507.928 857.207 514.063 857.207 520.454 857.207C520.454 855.121 520.454 853.034 520.454 850.948C516.108 850.948 512.018 850.948 507.928 850.948C507.928 849.904 507.928 848.861 507.928 847.818Z" fill="white"/>
<path d="M545.183 832.26C545.109 832.073 545.017 832.013 544.818 832.014C542.916 832.023 541.013 832.023 539.112 832.015C538.906 832.014 538.809 832.068 538.727 832.272C535.707 839.897 532.678 847.52 529.651 855.142C529.391 855.797 529.133 856.452 528.866 857.125C528.938 857.131 528.979 857.139 529.022 857.139C531.197 857.139 533.372 857.137 535.547 857.144C535.719 857.145 535.771 857.065 535.821 856.927C536.214 855.851 536.615 854.779 537.005 853.702C537.064 853.539 537.132 853.465 537.321 853.465C540.403 853.473 543.485 853.472 546.568 853.466C546.739 853.466 546.813 853.525 546.87 853.682C547.26 854.759 547.665 855.83 548.051 856.908C548.118 857.094 548.208 857.178 548.394 857.177C550.517 857.171 552.639 857.207 554.762 857.207C554.837 857.207 554.914 857.207 555.014 857.207C554.973 856.946 554.946 856.979 554.914 856.897C551.669 848.697 548.424 840.462 545.183 832.26ZM539.246 847.557C540.145 845.21 541.037 842.694 541.957 840.192C542.866 842.689 543.746 845.21 544.637 847.557C542.826 847.557 541.06 847.557 539.246 847.557Z" fill="white"/>
<path d="M481.949 857.521C485.625 857.069 488.607 855.329 490.877 852.347C491.332 851.75 491.702 851.087 492.128 850.428C490.148 849.546 488.234 848.693 486.323 847.84C484.264 851.759 479.198 852.49 476.109 849.821C473.091 847.211 472.893 842.539 475.689 839.733C477.02 838.395 478.637 837.717 480.503 837.763C483.076 837.828 485.005 839.049 486.323 841.32C488.229 840.445 490.126 839.572 492.051 838.688C491.293 837.238 490.347 835.983 489.157 834.933C486.038 832.182 482.422 831.078 478.351 831.716C474.966 832.247 472.16 833.917 470.068 836.685C467.222 840.448 466.531 844.643 468.18 849.099C470.289 854.797 476.018 858.251 481.949 857.521Z" fill="white"/>
<path d="M300.296 835.44C301.391 834.441 302.702 833.942 304.228 833.942C305.638 833.942 306.89 834.216 307.985 834.763C309.301 835.404 310.117 836.344 310.432 837.579C310.501 837.865 310.659 838.079 310.903 838.221C311.148 838.376 311.41 838.411 311.69 838.328C311.969 838.257 312.185 838.096 312.336 837.847C312.476 837.597 312.511 837.33 312.441 837.045C311.987 835.274 310.891 833.925 309.156 832.997C307.711 832.213 306.068 831.821 304.228 831.821C302.143 831.821 300.354 832.516 298.863 833.907C297.361 835.297 296.562 836.997 296.469 839.006C296.4 840.634 296.935 842.095 298.077 843.331C299.498 844.876 301.607 845.732 304.403 845.732H304.42C304.436 845.732 304.449 845.699 304.464 845.699C304.479 845.699 304.493 845.688 304.508 845.688C306.721 845.724 308.335 846.287 309.348 847.392C310.094 848.189 310.443 849.1 310.397 850.134C310.327 851.572 309.744 852.789 308.649 853.787C307.554 854.785 306.244 855.284 304.718 855.284C303.308 855.284 302.055 855.016 300.961 854.481C299.644 853.827 298.829 852.882 298.514 851.646C298.444 851.373 298.287 851.159 298.042 851.004C297.786 850.861 297.524 850.826 297.256 850.897C296.976 850.968 296.761 851.129 296.609 851.379C296.47 851.64 296.435 851.907 296.505 852.181C296.959 853.952 298.054 855.307 299.79 856.246C301.234 857.018 302.877 857.404 304.718 857.404C306.803 857.404 308.591 856.709 310.082 855.318C311.585 853.928 312.377 852.228 312.459 850.22C312.54 848.591 312.01 847.165 310.869 845.941C309.447 844.396 307.339 843.599 304.543 843.552C304.522 843.552 304.502 843.556 304.482 843.557C304.467 843.556 304.453 843.552 304.438 843.552C302.225 843.516 300.611 842.946 299.598 841.84C298.852 841.044 298.502 840.135 298.549 839.113C298.619 837.663 299.201 836.438 300.296 835.44Z" fill="white"/>
<path d="M342.026 856.335C342.026 856.632 342.064 856.887 342.263 857.101C342.472 857.303 342.687 857.404 342.967 857.404C343.258 857.404 343.53 857.303 343.728 857.101C343.938 856.887 344.071 856.632 344.071 856.335V832.962C344.071 832.427 343.771 832.088 343.259 831.946C342.758 831.803 342.346 831.963 342.066 832.427L331.641 849.988L321.221 832.427C320.941 831.964 320.547 831.803 320.047 831.946C319.534 832.088 319.274 832.427 319.274 832.962V856.335C319.274 856.632 319.374 856.887 319.572 857.101C319.782 857.303 320.032 857.404 320.324 857.404C320.603 857.404 320.83 857.303 321.04 857.101C321.238 856.887 321.319 856.632 321.319 856.335V836.777L330.732 852.591L330.778 852.609V852.626C330.778 852.65 330.813 852.68 330.837 852.715C330.86 852.739 330.878 852.763 330.901 852.787C330.925 852.811 330.945 852.834 330.969 852.858C331.004 852.882 331.031 852.906 331.055 852.929C331.076 852.942 331.088 852.984 331.097 852.989C331.101 852.992 331.106 853.034 331.106 853.034C331.117 853.034 331.129 853.034 331.141 853.034C331.176 853.034 331.211 853.041 331.246 853.052C331.269 853.065 331.298 853.059 331.333 853.071C331.368 853.083 331.403 853.08 331.438 853.08C331.461 853.092 331.49 853.094 331.525 853.094C331.56 853.106 331.595 853.11 331.63 853.11C331.665 853.11 331.7 853.102 331.735 853.09C331.77 853.09 331.799 853.084 331.822 853.072C331.857 853.072 331.892 853.066 331.927 853.054C331.962 853.042 331.991 853.03 332.015 853.018C332.05 853.007 332.084 852.989 332.119 852.965C332.166 852.941 332.183 852.935 332.172 852.947C332.137 852.971 332.148 852.965 332.207 852.929C332.23 852.906 332.259 852.882 332.294 852.858C332.318 852.834 332.341 852.811 332.364 852.787C332.376 852.775 332.431 852.751 332.466 852.716C332.489 852.68 332.567 852.651 332.567 852.627V852.609L332.613 852.591L342.026 836.777V856.335Z" fill="white"/>
<path d="M351.012 857.347C351.14 857.407 351.204 857.468 351.204 857.468C351.204 857.468 351.274 857.468 351.414 857.468C351.879 857.468 352.2 857.235 352.375 856.795L354.542 851.469H367.298L369.465 856.763C369.64 857.204 369.96 857.414 370.426 857.414C370.566 857.414 370.7 857.379 370.828 857.32C371.096 857.213 371.282 857.021 371.387 856.747C371.504 856.474 371.458 856.199 371.342 855.926L368.867 849.952V849.934L361.835 832.516C361.812 832.457 361.806 832.391 361.771 832.32C361.771 832.332 361.759 832.308 361.712 832.249C361.677 832.201 361.66 832.172 361.648 832.16C361.637 832.16 361.61 832.136 361.564 832.088L361.495 832.052C361.379 831.97 361.252 831.91 361.112 831.91C361.105 831.91 361.076 831.91 361.025 831.91C360.966 831.91 360.932 831.892 360.92 831.892C360.908 831.892 360.868 831.91 360.798 831.91H360.71C360.582 831.91 360.46 831.97 360.343 832.052C360.355 832.041 360.331 832.05 360.273 832.097C360.226 832.133 360.197 832.152 360.186 832.164C360.174 832.176 360.151 832.204 360.116 832.251L360.046 832.321C360.011 832.393 359.922 832.458 359.899 832.517L352.762 849.934V849.952L350.393 855.924C350.276 856.198 350.306 856.487 350.423 856.76C350.528 857.034 350.744 857.24 351.012 857.347ZM360.92 835.798L366.442 849.383H355.398L360.92 835.798Z" fill="white"/>
<path d="M377.579 856.923C377.788 857.125 378.023 857.226 378.302 857.226C378.593 857.226 378.836 857.125 379.035 856.923C379.244 856.709 379.348 856.459 379.348 856.174V854.173V845.732H385.177L387.884 851.289L390.576 856.839C390.763 857.232 391.072 857.416 391.503 857.416C391.666 857.416 391.817 857.375 391.957 857.303C392.213 857.173 392.388 856.968 392.481 856.694C392.574 856.421 392.557 856.152 392.429 855.89L389.921 850.673L387.449 845.531C389.184 845.257 390.623 844.485 391.765 843.213C392.93 841.929 393.512 840.444 393.512 838.756C393.512 836.854 392.802 835.249 391.38 833.906C389.948 832.563 388.223 831.909 386.208 831.909H378.292C378.012 831.909 377.788 831.993 377.578 832.194C377.38 832.397 377.302 832.629 377.302 832.926V855.03V856.174C377.302 856.459 377.38 856.709 377.579 856.923ZM379.347 833.995H386.208C387.652 833.995 388.887 834.456 389.912 835.395C390.937 836.322 391.45 837.441 391.45 838.76C391.45 840.056 390.949 841.23 389.947 842.157C388.957 843.084 387.751 843.384 386.33 843.645H379.347V833.995Z" fill="white"/>
<path d="M406 857.101C406.209 857.303 406.467 857.404 406.747 857.404C407.038 857.404 407.252 857.303 407.461 857.101C407.659 856.887 407.722 856.632 407.722 856.335V847.525V833.995H414.71C415.002 833.995 415.246 833.877 415.444 833.675C415.654 833.473 415.759 833.214 415.759 832.917C415.759 832.62 415.654 832.401 415.444 832.199C415.246 831.985 415.002 831.909 414.71 831.909H398.826C398.535 831.909 398.284 831.981 398.075 832.195C397.877 832.397 397.778 832.629 397.778 832.926C397.778 833.223 397.877 833.481 398.075 833.683C398.284 833.885 398.535 833.995 398.826 833.995H405.677V847.732V856.334C405.677 856.632 405.801 856.887 406 857.101Z" fill="white"/>
</svg>
